<svg xmlns="http://www.w3.org/2000/svg" xmlns:xlink="http://www.w3.org/1999/xlink" width="1080" zoomAndPan="magnify" viewBox="0 0 810 809.999993" height="1080" preserveAspectRatio="xMidYMid meet" version="1.0"><defs><g/></defs><g fill="#1d1d1f" fill-opacity="1"><g transform="translate(89.780477, 433.874998)"><g><path d="M 38.21875 -88.203125 C 42.90625 -88.203125 47.488281 -87.519531 51.96875 -86.15625 C 56.445312 -84.789062 59.773438 -83.441406 61.953125 -82.109375 L 65.09375 -80.015625 L 57.125 -64.265625 C 56.488281 -64.679688 55.609375 -65.222656 54.484375 -65.890625 C 53.367188 -66.554688 51.269531 -67.445312 48.1875 -68.5625 C 45.113281 -69.6875 42.242188 -70.25 39.578125 -70.25 C 36.296875 -70.25 33.757812 -69.546875 31.96875 -68.140625 C 30.1875 -66.742188 29.296875 -64.851562 29.296875 -62.46875 C 29.296875 -61.28125 29.710938 -60.175781 30.546875 -59.15625 C 31.390625 -58.144531 32.828125 -57.0625 34.859375 -55.90625 C 36.890625 -54.757812 38.675781 -53.832031 40.21875 -53.125 C 41.757812 -52.425781 44.140625 -51.378906 47.359375 -49.984375 C 52.953125 -47.597656 57.726562 -44.359375 61.6875 -40.265625 C 65.644531 -36.171875 67.625 -31.535156 67.625 -26.359375 C 67.625 -21.390625 66.726562 -17.046875 64.9375 -13.328125 C 63.15625 -9.617188 60.707031 -6.710938 57.59375 -4.609375 C 54.476562 -2.515625 51.03125 -0.960938 47.25 0.046875 C 43.46875 1.066406 39.375 1.578125 34.96875 1.578125 C 31.1875 1.578125 27.472656 1.191406 23.828125 0.421875 C 20.191406 -0.347656 17.148438 -1.3125 14.703125 -2.46875 C 12.253906 -3.625 10.046875 -4.757812 8.078125 -5.875 C 6.117188 -7 4.6875 -7.945312 3.78125 -8.71875 L 2.421875 -9.875 L 12.28125 -26.453125 C 13.125 -25.753906 14.28125 -24.863281 15.75 -23.78125 C 17.21875 -22.695312 19.820312 -21.242188 23.5625 -19.421875 C 27.3125 -17.597656 30.625 -16.6875 33.5 -16.6875 C 41.820312 -16.6875 45.984375 -19.523438 45.984375 -25.203125 C 45.984375 -26.390625 45.6875 -27.488281 45.09375 -28.5 C 44.5 -29.519531 43.445312 -30.535156 41.9375 -31.546875 C 40.4375 -32.566406 39.109375 -33.375 37.953125 -33.96875 C 36.796875 -34.5625 34.90625 -35.46875 32.28125 -36.6875 C 29.65625 -37.914062 27.710938 -38.847656 26.453125 -39.484375 C 21.203125 -42.066406 17.140625 -45.300781 14.265625 -49.1875 C 11.398438 -53.070312 9.96875 -57.253906 9.96875 -61.734375 C 9.96875 -69.503906 12.835938 -75.859375 18.578125 -80.796875 C 24.316406 -85.734375 30.863281 -88.203125 38.21875 -88.203125 Z M 38.21875 -88.203125 "/></g></g></g><g fill="#1d1d1f" fill-opacity="1"><g transform="translate(170.00053, 433.874998)"><g><path d="M 9.453125 -53.859375 L 9.453125 -73.921875 L 28.03125 -73.921875 L 28.03125 -53.859375 L 39.375 -53.859375 L 39.375 -39.6875 L 28.03125 -39.6875 L 28.03125 -22.578125 C 28.03125 -17.609375 29.429688 -15.125 32.234375 -15.125 C 32.929688 -15.125 33.664062 -15.257812 34.4375 -15.53125 C 35.207031 -15.8125 35.800781 -16.09375 36.21875 -16.375 L 36.859375 -16.796875 L 41.46875 -1.78125 C 37.476562 0.457031 32.929688 1.578125 27.828125 1.578125 C 24.328125 1.578125 21.316406 0.96875 18.796875 -0.25 C 16.273438 -1.476562 14.363281 -3.125 13.0625 -5.1875 C 11.769531 -7.257812 10.84375 -9.429688 10.28125 -11.703125 C 9.726562 -13.984375 9.453125 -16.414062 9.453125 -19 L 9.453125 -39.6875 L 1.6875 -39.6875 L 1.6875 -53.859375 Z M 9.453125 -53.859375 "/></g></g></g><g fill="#1d1d1f" fill-opacity="1"><g transform="translate(221.135562, 433.874998)"><g><path d="M 8.078125 -83.890625 C 10.253906 -86.066406 12.847656 -87.15625 15.859375 -87.15625 C 18.867188 -87.15625 21.457031 -86.066406 23.625 -83.890625 C 25.789062 -81.722656 26.875 -79.132812 26.875 -76.125 C 26.875 -73.113281 25.789062 -70.519531 23.625 -68.34375 C 21.457031 -66.175781 18.867188 -65.09375 15.859375 -65.09375 C 12.847656 -65.09375 10.253906 -66.175781 8.078125 -68.34375 C 5.910156 -70.519531 4.828125 -73.113281 4.828125 -76.125 C 4.828125 -79.132812 5.910156 -81.722656 8.078125 -83.890625 Z M 6.296875 -53.859375 L 6.296875 0 L 24.890625 0 L 24.890625 -53.859375 Z M 6.296875 -53.859375 "/></g></g></g><g fill="#1d1d1f" fill-opacity="1"><g transform="translate(262.505585, 433.874998)"><g><path d="M 6.296875 0 L 6.296875 -90.296875 L 24.890625 -90.296875 L 24.890625 0 Z M 6.296875 0 "/></g></g></g><g fill="#1d1d1f" fill-opacity="1"><g transform="translate(303.350611, 433.874998)"><g><path d="M 6.296875 0 L 6.296875 -90.296875 L 24.890625 -90.296875 L 24.890625 0 Z M 6.296875 0 "/></g></g></g><g fill="#1d1d1f" fill-opacity="1"><g transform="translate(344.195625, 433.874998)"><g><path d="M 52.390625 -17.84375 C 55.398438 -17.84375 58.320312 -18.296875 61.15625 -19.203125 C 64 -20.117188 66.082031 -21 67.40625 -21.84375 L 69.40625 -23.203125 L 77.8125 -6.40625 C 77.53125 -6.195312 77.144531 -5.914062 76.65625 -5.5625 C 76.164062 -5.21875 75.023438 -4.570312 73.234375 -3.625 C 71.453125 -2.675781 69.546875 -1.851562 67.515625 -1.15625 C 65.484375 -0.457031 62.820312 0.171875 59.53125 0.734375 C 56.238281 1.296875 52.84375 1.578125 49.34375 1.578125 C 41.300781 1.578125 33.671875 -0.398438 26.453125 -4.359375 C 19.242188 -8.316406 13.4375 -13.757812 9.03125 -20.6875 C 4.625 -27.613281 2.421875 -35.101562 2.421875 -43.15625 C 2.421875 -49.25 3.710938 -55.09375 6.296875 -60.6875 C 8.890625 -66.289062 12.335938 -71.085938 16.640625 -75.078125 C 20.941406 -79.066406 25.960938 -82.25 31.703125 -84.625 C 37.441406 -87.007812 43.320312 -88.203125 49.34375 -88.203125 C 54.945312 -88.203125 60.109375 -87.535156 64.828125 -86.203125 C 69.554688 -84.867188 72.898438 -83.539062 74.859375 -82.21875 L 77.8125 -80.21875 L 69.40625 -63.421875 C 68.914062 -63.835938 68.179688 -64.34375 67.203125 -64.9375 C 66.222656 -65.53125 64.257812 -66.316406 61.3125 -67.296875 C 58.375 -68.285156 55.398438 -68.78125 52.390625 -68.78125 C 47.628906 -68.78125 43.359375 -68.007812 39.578125 -66.46875 C 35.804688 -64.925781 32.816406 -62.894531 30.609375 -60.375 C 28.398438 -57.851562 26.71875 -55.140625 25.5625 -52.234375 C 24.40625 -49.328125 23.828125 -46.367188 23.828125 -43.359375 C 23.828125 -36.785156 26.296875 -30.890625 31.234375 -25.671875 C 36.171875 -20.453125 43.222656 -17.84375 52.390625 -17.84375 Z M 52.390625 -17.84375 "/></g></g></g><g fill="#1d1d1f" fill-opacity="1"><g transform="translate(432.92068, 433.874998)"><g><path d="M 11.390625 -6.40625 C 5.410156 -11.726562 2.421875 -18.550781 2.421875 -26.875 C 2.421875 -35.207031 5.535156 -42.050781 11.765625 -47.40625 C 17.992188 -52.757812 25.691406 -55.4375 34.859375 -55.4375 C 43.890625 -55.4375 51.5 -52.738281 57.6875 -47.34375 C 63.882812 -41.957031 66.984375 -35.132812 66.984375 -26.875 C 66.984375 -18.613281 63.957031 -11.804688 57.90625 -6.453125 C 51.851562 -1.097656 44.171875 1.578125 34.859375 1.578125 C 25.203125 1.578125 17.378906 -1.082031 11.390625 -6.40625 Z M 25.78125 -36 C 23.363281 -33.625 22.15625 -30.582031 22.15625 -26.875 C 22.15625 -23.164062 23.304688 -20.140625 25.609375 -17.796875 C 27.921875 -15.453125 30.96875 -14.28125 34.75 -14.28125 C 38.394531 -14.28125 41.390625 -15.46875 43.734375 -17.84375 C 46.078125 -20.226562 47.25 -23.238281 47.25 -26.875 C 47.25 -30.582031 46.039062 -33.625 43.625 -36 C 41.207031 -38.382812 38.25 -39.578125 34.75 -39.578125 C 31.1875 -39.578125 28.195312 -38.382812 25.78125 -36 Z M 25.78125 -36 "/></g></g></g><g fill="#1d1d1f" fill-opacity="1"><g transform="translate(511.985732, 433.874998)"><g><path d="M 11.390625 -6.40625 C 5.410156 -11.726562 2.421875 -18.550781 2.421875 -26.875 C 2.421875 -35.207031 5.535156 -42.050781 11.765625 -47.40625 C 17.992188 -52.757812 25.691406 -55.4375 34.859375 -55.4375 C 43.890625 -55.4375 51.5 -52.738281 57.6875 -47.34375 C 63.882812 -41.957031 66.984375 -35.132812 66.984375 -26.875 C 66.984375 -18.613281 63.957031 -11.804688 57.90625 -6.453125 C 51.851562 -1.097656 44.171875 1.578125 34.859375 1.578125 C 25.203125 1.578125 17.378906 -1.082031 11.390625 -6.40625 Z M 25.78125 -36 C 23.363281 -33.625 22.15625 -30.582031 22.15625 -26.875 C 22.15625 -23.164062 23.304688 -20.140625 25.609375 -17.796875 C 27.921875 -15.453125 30.96875 -14.28125 34.75 -14.28125 C 38.394531 -14.28125 41.390625 -15.46875 43.734375 -17.84375 C 46.078125 -20.226562 47.25 -23.238281 47.25 -26.875 C 47.25 -30.582031 46.039062 -33.625 43.625 -36 C 41.207031 -38.382812 38.25 -39.578125 34.75 -39.578125 C 31.1875 -39.578125 28.195312 -38.382812 25.78125 -36 Z M 25.78125 -36 "/></g></g></g><g fill="#1d1d1f" fill-opacity="1"><g transform="translate(591.050761, 433.874998)"><g><path d="M 67.828125 -53.859375 L 42.203125 -28.140625 L 70.34375 0 L 46.40625 0 L 24.890625 -21.53125 L 24.890625 0 L 6.296875 0 L 6.296875 -90.296875 L 24.890625 -90.296875 L 24.890625 -35.0625 L 43.6875 -53.859375 Z M 67.828125 -53.859375 "/></g></g></g><g fill="#1d1d1f" fill-opacity="1"><g transform="translate(668.540808, 433.874998)"><g><path d="M 29.71875 -55.4375 C 32.789062 -55.4375 35.832031 -55.085938 38.84375 -54.390625 C 41.851562 -53.691406 44.09375 -52.992188 45.5625 -52.296875 L 47.78125 -51.234375 L 41.6875 -39.0625 C 37.488281 -41.300781 33.5 -42.421875 29.71875 -42.421875 C 27.613281 -42.421875 26.125 -42.191406 25.25 -41.734375 C 24.375 -41.285156 23.9375 -40.429688 23.9375 -39.171875 C 23.9375 -38.890625 23.972656 -38.609375 24.046875 -38.328125 C 24.117188 -38.046875 24.257812 -37.78125 24.46875 -37.53125 C 24.675781 -37.289062 24.867188 -37.082031 25.046875 -36.90625 C 25.222656 -36.726562 25.519531 -36.535156 25.9375 -36.328125 C 26.351562 -36.117188 26.679688 -35.960938 26.921875 -35.859375 C 27.171875 -35.753906 27.578125 -35.59375 28.140625 -35.375 C 28.703125 -35.164062 29.117188 -35.007812 29.390625 -34.90625 C 29.671875 -34.800781 30.144531 -34.644531 30.8125 -34.4375 C 31.476562 -34.226562 31.988281 -34.085938 32.34375 -34.015625 C 34.507812 -33.390625 36.394531 -32.691406 38 -31.921875 C 39.613281 -31.148438 41.3125 -30.097656 43.09375 -28.765625 C 44.882812 -27.441406 46.269531 -25.765625 47.25 -23.734375 C 48.226562 -21.703125 48.71875 -19.390625 48.71875 -16.796875 C 48.71875 -4.546875 40.210938 1.578125 23.203125 1.578125 C 19.359375 1.578125 15.703125 0.984375 12.234375 -0.203125 C 8.765625 -1.398438 6.257812 -2.59375 4.71875 -3.78125 L 2.421875 -5.671875 L 9.96875 -18.375 C 10.53125 -17.882812 11.265625 -17.304688 12.171875 -16.640625 C 13.085938 -15.972656 14.734375 -15.0625 17.109375 -13.90625 C 19.492188 -12.757812 21.5625 -12.1875 23.3125 -12.1875 C 27.15625 -12.1875 29.078125 -13.476562 29.078125 -16.0625 C 29.078125 -17.25 28.585938 -18.175781 27.609375 -18.84375 C 26.628906 -19.507812 24.96875 -20.257812 22.625 -21.09375 C 20.28125 -21.9375 18.441406 -22.710938 17.109375 -23.421875 C 13.753906 -25.171875 11.09375 -27.144531 9.125 -29.34375 C 7.164062 -31.550781 6.1875 -34.472656 6.1875 -38.109375 C 6.1875 -43.578125 8.304688 -47.832031 12.546875 -50.875 C 16.785156 -53.914062 22.507812 -55.4375 29.71875 -55.4375 Z M 29.71875 -55.4375 "/></g></g></g></svg>