<svg width="18" height="21" viewBox="0 0 18 21">
<path d="M6.75 1.5H11.25C11.4489 1.5 11.6397 1.42098 11.7803 1.28033C11.921 1.13968 12 0.948912 12 0.75C12 0.551088 11.921 0.360322 11.7803 0.21967C11.6397 0.0790176 11.4489 0 11.25 0L6.75 0C6.55109 0 6.36032 0.0790176 6.21967 0.21967C6.07902 0.360322 6 0.551088 6 0.75C6 0.948912 6.07902 1.13968 6.21967 1.28033C6.36032 1.42098 6.55109 1.5 6.75 1.5Z"/>
<path d="M9 3C7.21997 3 5.47991 3.52784 3.99987 4.51677C2.51983 5.50571 1.36628 6.91131 0.685088 8.55585C0.00389957 10.2004 -0.17433 12.01 0.172937 13.7558C0.520204 15.5016 1.37737 17.1053 2.63604 18.364C3.89472 19.6226 5.49836 20.4798 7.24419 20.8271C8.99002 21.1743 10.7996 20.9961 12.4442 20.3149C14.0887 19.6337 15.4943 18.4802 16.4832 17.0001C17.4722 15.5201 18 13.78 18 12C17.9973 9.61388 17.0482 7.32626 15.361 5.63902C13.6737 3.95178 11.3861 3.0027 9 3ZM13.2426 8.81799L9.53037 12.5303C9.46073 12.6 9.37805 12.6552 9.28705 12.6929C9.19606 12.7306 9.09853 12.75 9.00004 12.75C8.90154 12.75 8.80401 12.7306 8.71301 12.6929C8.62202 12.6553 8.53933 12.6 8.46968 12.5304C8.40004 12.4607 8.34479 12.378 8.30709 12.2871C8.26939 12.1961 8.24999 12.0985 8.24999 12C8.24998 11.9015 8.26938 11.804 8.30707 11.713C8.34475 11.622 8.4 11.5393 8.46964 11.4697L12.182 7.75736C12.2516 7.68771 12.3343 7.63246 12.4253 7.59477C12.5163 7.55708 12.6138 7.53767 12.7123 7.53767C12.8108 7.53767 12.9083 7.55707 12.9993 7.59476C13.0903 7.63244 13.173 7.68769 13.2426 7.75733C13.3123 7.82697 13.3675 7.90965 13.4052 8.00065C13.4429 8.09164 13.4623 8.18916 13.4623 8.28766C13.4623 8.38615 13.4429 8.48368 13.4052 8.57467C13.3675 8.66567 13.3123 8.74835 13.2427 8.81799H13.2426Z"/>
</svg>